<svg xmlns="http://www.w3.org/2000/svg" viewBox="0 0 260 260" style="fill-rule:evenodd;clip-rule:evenodd;stroke-linejoin:round;stroke-miterlimit:2;">
  <style>
    path { fill: black; }
    @media (prefers-color-scheme: dark) {
      path { fill: white; }
    }
  </style>
  <g transform="matrix(4.75221,0,0,4.75221,0.209824,1.69032)">
      <g>
          <g transform="matrix(1.0925,0,0,1.0925,0.811512,8.22889)">
              <path d="M10.437,33.524C8.871,33.524 7.372,33.254 5.941,32.714C4.537,32.173 3.39,31.35 2.499,30.243C1.608,29.136 1.162,27.759 1.162,26.112C1.162,24.654 1.486,23.52 2.134,22.71C2.782,21.873 3.592,21.293 4.564,20.969C5.536,20.645 6.481,20.483 7.399,20.483C6.535,21.401 5.874,22.346 5.415,23.318C4.983,24.29 4.767,25.221 4.767,26.112C4.767,27.03 4.996,27.894 5.455,28.704C5.941,29.487 6.657,30.122 7.601,30.608C8.547,31.121 9.721,31.377 11.125,31.377C12.34,31.377 13.515,31.174 14.649,30.77C15.81,30.365 16.755,29.757 17.484,28.947C18.24,28.137 18.618,27.125 18.618,25.91C18.618,24.802 18.294,23.858 17.645,23.075C17.025,22.265 16.215,21.549 15.216,20.928C14.217,20.28 13.164,19.673 12.057,19.106C10.95,18.512 9.897,17.877 8.898,17.202C7.899,16.527 7.075,15.744 6.427,14.853C5.806,13.962 5.496,12.896 5.496,11.653C5.496,10.547 5.766,9.372 6.306,8.13C6.872,6.861 7.669,5.673 8.695,4.566C9.721,3.459 10.963,2.568 12.421,1.893C13.879,1.191 15.499,0.84 17.281,0.84C19.144,0.84 20.453,1.232 21.209,2.015C21.966,2.798 22.344,3.824 22.344,5.093C22.344,6.092 22.168,7.158 21.817,8.292C21.466,9.426 21.034,10.506 20.521,11.532C20.035,12.558 19.563,13.435 19.104,14.165C17.916,13.922 17.322,13.233 17.322,12.099C17.322,11.532 17.43,10.898 17.645,10.195C17.889,9.493 18.159,8.765 18.456,8.009C18.78,7.253 19.049,6.524 19.266,5.822C19.509,5.093 19.63,4.458 19.63,3.918C19.63,3.432 19.482,3.054 19.185,2.784C18.915,2.514 18.348,2.379 17.484,2.379C16.188,2.379 14.999,2.663 13.919,3.229C12.839,3.797 11.895,4.512 11.085,5.376C10.302,6.24 9.694,7.158 9.262,8.13C8.83,9.075 8.614,9.939 8.614,10.722C8.614,11.694 8.925,12.531 9.546,13.233C10.166,13.908 10.963,14.529 11.935,15.096C12.934,15.663 13.974,16.23 15.054,16.797C16.16,17.364 17.2,17.999 18.172,18.701C19.171,19.403 19.981,20.24 20.602,21.212C21.223,22.184 21.534,23.372 21.534,24.776C21.534,26.18 21.209,27.422 20.562,28.502C19.941,29.581 19.09,30.486 18.01,31.215C16.93,31.971 15.729,32.538 14.406,32.916C13.11,33.321 11.787,33.524 10.437,33.524ZM26.085,33.524C25.275,33.524 24.505,33.308 23.776,32.876C23.074,32.444 22.723,31.89 22.723,31.215C22.723,30.864 22.777,30.486 22.885,30.081C23.02,29.676 23.142,29.298 23.25,28.947C24.087,26.382 24.87,23.993 25.599,21.779C26.328,19.538 27.057,17.391 27.786,15.339C28.542,13.26 29.325,11.181 30.135,9.102C30.972,7.023 31.903,4.85 32.929,2.582C31.39,2.933 30.175,3.378 29.284,3.918C28.393,4.431 27.799,4.688 27.502,4.688C27.367,4.688 27.165,4.593 26.895,4.404C26.652,4.215 26.436,3.999 26.247,3.756C26.058,3.513 25.963,3.297 25.963,3.108C26.719,2.784 27.597,2.447 28.596,2.096C29.622,1.745 30.729,1.448 31.917,1.204C33.105,0.961 34.293,0.84 35.481,0.84C36.75,0.84 38.046,1.016 39.369,1.367C40.692,1.69 41.907,2.19 43.014,2.865C44.148,3.513 45.052,4.337 45.727,5.336C46.429,6.308 46.78,7.455 46.78,8.778C46.78,10.209 46.456,11.438 45.808,12.464C45.16,13.49 44.296,14.354 43.216,15.056C42.163,15.758 41.016,16.325 39.774,16.757C38.532,17.189 37.29,17.513 36.048,17.729C34.833,17.945 33.739,18.093 32.767,18.174C31.795,18.255 31.066,18.296 30.58,18.296L30.337,18.296C29.581,20.969 28.839,23.642 28.11,26.315C27.855,27.239 27.607,28.135 27.365,29C26.915,30.611 26.489,32.118 26.085,33.524ZM30.702,17.04C32.214,16.932 33.726,16.676 35.238,16.27C36.75,15.866 38.113,15.312 39.328,14.61C40.57,13.881 41.556,12.977 42.285,11.897C43.041,10.817 43.419,9.561 43.419,8.13C43.419,6.78 43.054,5.687 42.325,4.85C41.623,4.013 40.705,3.378 39.571,2.946C38.464,2.514 37.29,2.285 36.048,2.258C35.076,4.148 34.144,6.388 33.253,8.98C32.362,11.546 31.512,14.232 30.702,17.04Z" style="fill-rule:nonzero;"/>
          </g>
          <g transform="matrix(1.0925,0,0,1.0925,1.0192,8.22889)">
              <path d="M10.437,33.524C8.871,33.524 7.372,33.254 5.941,32.714C4.537,32.173 3.39,31.35 2.499,30.243C1.608,29.136 1.162,27.759 1.162,26.112C1.162,24.654 1.486,23.52 2.134,22.71C2.782,21.873 3.592,21.293 4.564,20.969C5.536,20.645 6.481,20.483 7.399,20.483C6.535,21.401 5.874,22.346 5.415,23.318C4.983,24.29 4.767,25.221 4.767,26.112C4.767,27.03 4.996,27.894 5.455,28.704C5.941,29.487 6.657,30.122 7.601,30.608C8.547,31.121 9.721,31.377 11.125,31.377C12.34,31.377 13.515,31.174 14.649,30.77C15.81,30.365 16.755,29.757 17.484,28.947C18.24,28.137 18.618,27.125 18.618,25.91C18.618,24.802 18.294,23.858 17.645,23.075C17.025,22.265 16.215,21.549 15.216,20.928C14.217,20.28 13.164,19.673 12.057,19.106C10.95,18.512 9.897,17.877 8.898,17.202C7.899,16.527 7.075,15.744 6.427,14.853C5.806,13.962 5.496,12.896 5.496,11.653C5.496,10.547 5.766,9.372 6.306,8.13C6.872,6.861 7.669,5.673 8.695,4.566C9.721,3.459 10.963,2.568 12.421,1.893C13.879,1.191 15.499,0.84 17.281,0.84C19.144,0.84 20.453,1.232 21.209,2.015C21.966,2.798 22.344,3.824 22.344,5.093C22.344,6.092 22.168,7.158 21.817,8.292C21.466,9.426 21.034,10.506 20.521,11.532C20.035,12.558 19.563,13.435 19.104,14.165C17.916,13.922 17.322,13.233 17.322,12.099C17.322,11.532 17.43,10.898 17.645,10.195C17.889,9.493 18.159,8.765 18.456,8.009C18.78,7.253 19.049,6.524 19.266,5.822C19.509,5.093 19.63,4.458 19.63,3.918C19.63,3.432 19.482,3.054 19.185,2.784C18.915,2.514 18.348,2.379 17.484,2.379C16.188,2.379 14.999,2.663 13.919,3.229C12.839,3.797 11.895,4.512 11.085,5.376C10.302,6.24 9.694,7.158 9.262,8.13C8.83,9.075 8.614,9.939 8.614,10.722C8.614,11.694 8.925,12.531 9.546,13.233C10.166,13.908 10.963,14.529 11.935,15.096C12.934,15.663 13.974,16.23 15.054,16.797C16.16,17.364 17.2,17.999 18.172,18.701C19.171,19.403 19.981,20.24 20.602,21.212C21.223,22.184 21.534,23.372 21.534,24.776C21.534,26.18 21.209,27.422 20.562,28.502C19.941,29.581 19.09,30.486 18.01,31.215C16.93,31.971 15.729,32.538 14.406,32.916C13.11,33.321 11.787,33.524 10.437,33.524ZM26.085,33.524C25.275,33.524 24.505,33.308 23.776,32.876C23.074,32.444 22.723,31.89 22.723,31.215C22.723,30.864 22.777,30.486 22.885,30.081C23.02,29.676 23.142,29.298 23.25,28.947C24.087,26.382 24.87,23.993 25.599,21.779C26.328,19.538 27.057,17.391 27.786,15.339C28.542,13.26 29.325,11.181 30.135,9.102C30.972,7.023 31.903,4.85 32.929,2.582C31.39,2.933 30.175,3.378 29.284,3.918C28.393,4.431 27.799,4.688 27.502,4.688C27.367,4.688 27.165,4.593 26.895,4.404C26.652,4.215 26.436,3.999 26.247,3.756C26.058,3.513 25.963,3.297 25.963,3.108C26.719,2.784 27.597,2.447 28.596,2.096C29.622,1.745 30.729,1.448 31.917,1.204C33.105,0.961 34.293,0.84 35.481,0.84C36.75,0.84 38.046,1.016 39.369,1.367C40.692,1.69 41.907,2.19 43.014,2.865C44.148,3.513 45.052,4.337 45.727,5.336C46.429,6.308 46.78,7.455 46.78,8.778C46.78,10.209 46.456,11.438 45.808,12.464C45.16,13.49 44.296,14.354 43.216,15.056C42.163,15.758 41.016,16.325 39.774,16.757C38.532,17.189 37.29,17.513 36.048,17.729C34.833,17.945 33.739,18.093 32.767,18.174C31.795,18.255 31.066,18.296 30.58,18.296L30.337,18.296C29.581,20.969 28.839,23.642 28.11,26.315C27.855,27.239 27.607,28.135 27.365,29C26.915,30.611 26.489,32.118 26.085,33.524ZM30.702,17.04C32.214,16.932 33.726,16.676 35.238,16.27C36.75,15.866 38.113,15.312 39.328,14.61C40.57,13.881 41.556,12.977 42.285,11.897C43.041,10.817 43.419,9.561 43.419,8.13C43.419,6.78 43.054,5.687 42.325,4.85C41.623,4.013 40.705,3.378 39.571,2.946C38.464,2.514 37.29,2.285 36.048,2.258C35.076,4.148 34.144,6.388 33.253,8.98C32.362,11.546 31.512,14.232 30.702,17.04Z" style="fill-rule:nonzero;"/>
          </g>
          <g transform="matrix(1.0925,0,0,1.0925,1.2269,8.22889)">
              <path d="M10.437,33.524C8.871,33.524 7.372,33.254 5.941,32.714C4.537,32.173 3.39,31.35 2.499,30.243C1.608,29.136 1.162,27.759 1.162,26.112C1.162,24.654 1.486,23.52 2.134,22.71C2.782,21.873 3.592,21.293 4.564,20.969C5.536,20.645 6.481,20.483 7.399,20.483C6.535,21.401 5.874,22.346 5.415,23.318C4.983,24.29 4.767,25.221 4.767,26.112C4.767,27.03 4.996,27.894 5.455,28.704C5.941,29.487 6.657,30.122 7.601,30.608C8.547,31.121 9.721,31.377 11.125,31.377C12.34,31.377 13.515,31.174 14.649,30.77C15.81,30.365 16.755,29.757 17.484,28.947C18.24,28.137 18.618,27.125 18.618,25.91C18.618,24.802 18.294,23.858 17.645,23.075C17.025,22.265 16.215,21.549 15.216,20.928C14.217,20.28 13.164,19.673 12.057,19.106C10.95,18.512 9.897,17.877 8.898,17.202C7.899,16.527 7.075,15.744 6.427,14.853C5.806,13.962 5.496,12.896 5.496,11.653C5.496,10.547 5.766,9.372 6.306,8.13C6.872,6.861 7.669,5.673 8.695,4.566C9.721,3.459 10.963,2.568 12.421,1.893C13.879,1.191 15.499,0.84 17.281,0.84C19.144,0.84 20.453,1.232 21.209,2.015C21.966,2.798 22.344,3.824 22.344,5.093C22.344,6.092 22.168,7.158 21.817,8.292C21.466,9.426 21.034,10.506 20.521,11.532C20.035,12.558 19.563,13.435 19.104,14.165C17.916,13.922 17.322,13.233 17.322,12.099C17.322,11.532 17.43,10.898 17.645,10.195C17.889,9.493 18.159,8.765 18.456,8.009C18.78,7.253 19.049,6.524 19.266,5.822C19.509,5.093 19.63,4.458 19.63,3.918C19.63,3.432 19.482,3.054 19.185,2.784C18.915,2.514 18.348,2.379 17.484,2.379C16.188,2.379 14.999,2.663 13.919,3.229C12.839,3.797 11.895,4.512 11.085,5.376C10.302,6.24 9.694,7.158 9.262,8.13C8.83,9.075 8.614,9.939 8.614,10.722C8.614,11.694 8.925,12.531 9.546,13.233C10.166,13.908 10.963,14.529 11.935,15.096C12.934,15.663 13.974,16.23 15.054,16.797C16.16,17.364 17.2,17.999 18.172,18.701C19.171,19.403 19.981,20.24 20.602,21.212C21.223,22.184 21.534,23.372 21.534,24.776C21.534,26.18 21.209,27.422 20.562,28.502C19.941,29.581 19.09,30.486 18.01,31.215C16.93,31.971 15.729,32.538 14.406,32.916C13.11,33.321 11.787,33.524 10.437,33.524ZM26.085,33.524C25.275,33.524 24.505,33.308 23.776,32.876C23.074,32.444 22.723,31.89 22.723,31.215C22.723,30.864 22.777,30.486 22.885,30.081C23.02,29.676 23.142,29.298 23.25,28.947C24.087,26.382 24.87,23.993 25.599,21.779C26.328,19.538 27.057,17.391 27.786,15.339C28.542,13.26 29.325,11.181 30.135,9.102C30.972,7.023 31.903,4.85 32.929,2.582C31.39,2.933 30.175,3.378 29.284,3.918C28.393,4.431 27.799,4.688 27.502,4.688C27.367,4.688 27.165,4.593 26.895,4.404C26.652,4.215 26.436,3.999 26.247,3.756C26.058,3.513 25.963,3.297 25.963,3.108C26.719,2.784 27.597,2.447 28.596,2.096C29.622,1.745 30.729,1.448 31.917,1.204C33.105,0.961 34.293,0.84 35.481,0.84C36.75,0.84 38.046,1.016 39.369,1.367C40.692,1.69 41.907,2.19 43.014,2.865C44.148,3.513 45.052,4.337 45.727,5.336C46.429,6.308 46.78,7.455 46.78,8.778C46.78,10.209 46.456,11.438 45.808,12.464C45.16,13.49 44.296,14.354 43.216,15.056C42.163,15.758 41.016,16.325 39.774,16.757C38.532,17.189 37.29,17.513 36.048,17.729C34.833,17.945 33.739,18.093 32.767,18.174C31.795,18.255 31.066,18.296 30.58,18.296L30.337,18.296C29.581,20.969 28.839,23.642 28.11,26.315C27.855,27.239 27.607,28.135 27.365,29C26.915,30.611 26.489,32.118 26.085,33.524ZM30.702,17.04C32.214,16.932 33.726,16.676 35.238,16.27C36.75,15.866 38.113,15.312 39.328,14.61C40.57,13.881 41.556,12.977 42.285,11.897C43.041,10.817 43.419,9.561 43.419,8.13C43.419,6.78 43.054,5.687 42.325,4.85C41.623,4.013 40.705,3.378 39.571,2.946C38.464,2.514 37.29,2.285 36.048,2.258C35.076,4.148 34.144,6.388 33.253,8.98C32.362,11.546 31.512,14.232 30.702,17.04Z" style="fill-rule:nonzero;"/>
          </g>
          <g transform="matrix(1.0925,0,0,1.0925,1.43459,8.22889)">
              <path d="M10.437,33.524C8.871,33.524 7.372,33.254 5.941,32.714C4.537,32.173 3.39,31.35 2.499,30.243C1.608,29.136 1.162,27.759 1.162,26.112C1.162,24.654 1.486,23.52 2.134,22.71C2.782,21.873 3.592,21.293 4.564,20.969C5.536,20.645 6.481,20.483 7.399,20.483C6.535,21.401 5.874,22.346 5.415,23.318C4.983,24.29 4.767,25.221 4.767,26.112C4.767,27.03 4.996,27.894 5.455,28.704C5.941,29.487 6.657,30.122 7.601,30.608C8.547,31.121 9.721,31.377 11.125,31.377C12.34,31.377 13.515,31.174 14.649,30.77C15.81,30.365 16.755,29.757 17.484,28.947C18.24,28.137 18.618,27.125 18.618,25.91C18.618,24.802 18.294,23.858 17.645,23.075C17.025,22.265 16.215,21.549 15.216,20.928C14.217,20.28 13.164,19.673 12.057,19.106C10.95,18.512 9.897,17.877 8.898,17.202C7.899,16.527 7.075,15.744 6.427,14.853C5.806,13.962 5.496,12.896 5.496,11.653C5.496,10.547 5.766,9.372 6.306,8.13C6.872,6.861 7.669,5.673 8.695,4.566C9.721,3.459 10.963,2.568 12.421,1.893C13.879,1.191 15.499,0.84 17.281,0.84C19.144,0.84 20.453,1.232 21.209,2.015C21.966,2.798 22.344,3.824 22.344,5.093C22.344,6.092 22.168,7.158 21.817,8.292C21.466,9.426 21.034,10.506 20.521,11.532C20.035,12.558 19.563,13.435 19.104,14.165C17.916,13.922 17.322,13.233 17.322,12.099C17.322,11.532 17.43,10.898 17.645,10.195C17.889,9.493 18.159,8.765 18.456,8.009C18.78,7.253 19.049,6.524 19.266,5.822C19.509,5.093 19.63,4.458 19.63,3.918C19.63,3.432 19.482,3.054 19.185,2.784C18.915,2.514 18.348,2.379 17.484,2.379C16.188,2.379 14.999,2.663 13.919,3.229C12.839,3.797 11.895,4.512 11.085,5.376C10.302,6.24 9.694,7.158 9.262,8.13C8.83,9.075 8.614,9.939 8.614,10.722C8.614,11.694 8.925,12.531 9.546,13.233C10.166,13.908 10.963,14.529 11.935,15.096C12.934,15.663 13.974,16.23 15.054,16.797C16.16,17.364 17.2,17.999 18.172,18.701C19.171,19.403 19.981,20.24 20.602,21.212C21.223,22.184 21.534,23.372 21.534,24.776C21.534,26.18 21.209,27.422 20.562,28.502C19.941,29.581 19.09,30.486 18.01,31.215C16.93,31.971 15.729,32.538 14.406,32.916C13.11,33.321 11.787,33.524 10.437,33.524ZM26.085,33.524C25.275,33.524 24.505,33.308 23.776,32.876C23.074,32.444 22.723,31.89 22.723,31.215C22.723,30.864 22.777,30.486 22.885,30.081C23.02,29.676 23.142,29.298 23.25,28.947C24.087,26.382 24.87,23.993 25.599,21.779C26.328,19.538 27.057,17.391 27.786,15.339C28.542,13.26 29.325,11.181 30.135,9.102C30.972,7.023 31.903,4.85 32.929,2.582C31.39,2.933 30.175,3.378 29.284,3.918C28.393,4.431 27.799,4.688 27.502,4.688C27.367,4.688 27.165,4.593 26.895,4.404C26.652,4.215 26.436,3.999 26.247,3.756C26.058,3.513 25.963,3.297 25.963,3.108C26.719,2.784 27.597,2.447 28.596,2.096C29.622,1.745 30.729,1.448 31.917,1.204C33.105,0.961 34.293,0.84 35.481,0.84C36.75,0.84 38.046,1.016 39.369,1.367C40.692,1.69 41.907,2.19 43.014,2.865C44.148,3.513 45.052,4.337 45.727,5.336C46.429,6.308 46.78,7.455 46.78,8.778C46.78,10.209 46.456,11.438 45.808,12.464C45.16,13.49 44.296,14.354 43.216,15.056C42.163,15.758 41.016,16.325 39.774,16.757C38.532,17.189 37.29,17.513 36.048,17.729C34.833,17.945 33.739,18.093 32.767,18.174C31.795,18.255 31.066,18.296 30.58,18.296L30.337,18.296C29.581,20.969 28.839,23.642 28.11,26.315C27.855,27.239 27.607,28.135 27.365,29C26.915,30.611 26.489,32.118 26.085,33.524ZM30.702,17.04C32.214,16.932 33.726,16.676 35.238,16.27C36.75,15.866 38.113,15.312 39.328,14.61C40.57,13.881 41.556,12.977 42.285,11.897C43.041,10.817 43.419,9.561 43.419,8.13C43.419,6.78 43.054,5.687 42.325,4.85C41.623,4.013 40.705,3.378 39.571,2.946C38.464,2.514 37.29,2.285 36.048,2.258C35.076,4.148 34.144,6.388 33.253,8.98C32.362,11.546 31.512,14.232 30.702,17.04Z" style="fill-rule:nonzero;"/>
          </g>
      </g>
  </g>
</svg>
