<?xml version="1.0" standalone="no"?>
<!DOCTYPE svg PUBLIC "-//W3C//DTD SVG 20010904//EN"
 "http://www.w3.org/TR/2001/REC-SVG-20010904/DTD/svg10.dtd">
<svg version="1.0" xmlns="http://www.w3.org/2000/svg"
 width="700.000000pt" height="700.000000pt" viewBox="0 0 700.000000 700.000000"
 preserveAspectRatio="xMidYMid meet">
<metadata>
Created by potrace 1.14, written by Peter Selinger 2001-2017
</metadata>
<g transform="translate(0.000000,700.000000) scale(0.100000,-0.100000)"
fill="#000000" stroke="none">
<path d="M625 6562 c-121 -8 -242 -49 -336 -113 -59 -40 -170 -154 -192 -198
-15 -29 -28 -54 -46 -89 -6 -12 -20 -59 -31 -105 -19 -79 -20 -120 -19 -1032
0 -1025 -1 -1007 53 -1130 80 -179 228 -309 421 -369 80 -24 101 -25 703 -26
l573 0 -4 -502 c-2 -277 -6 -516 -10 -533 -69 -291 -221 -492 -468 -618 -127
-65 -206 -85 -364 -93 -210 -10 -222 -11 -277 -36 -91 -42 -165 -136 -184
-234 -4 -21 -7 -203 -7 -404 1 -402 3 -418 65 -508 35 -51 115 -106 178 -122
104 -28 465 -7 650 36 14 3 36 8 50 10 14 3 43 10 65 16 22 6 45 13 50 14 13
3 171 59 215 76 70 27 264 129 348 184 366 239 658 582 823 969 17 39 34 79
39 90 22 47 90 291 104 370 13 72 27 185 33 255 8 107 7 3453 -1 3523 -26 211
-171 410 -367 504 -139 67 -127 66 -1124 67 -495 1 -918 0 -940 -2z"/>
<path d="M4467 6547 c-275 -55 -484 -277 -523 -551 -8 -61 -9 -1877 0 -1926
13 -75 17 -92 36 -144 84 -223 290 -388 525 -420 22 -3 298 -5 612 -6 l573 0
-3 -507 -4 -508 -26 -90 c-48 -159 -116 -275 -226 -386 -162 -162 -352 -245
-581 -255 -63 -2 -143 -6 -177 -9 -119 -8 -231 -91 -274 -203 -21 -55 -22 -71
-23 -422 -1 -201 2 -387 7 -414 22 -124 113 -222 237 -256 66 -18 351 -14 475
6 17 3 44 7 60 10 17 2 53 9 80 14 28 6 60 12 73 15 155 29 421 134 596 234
515 295 903 817 1036 1391 28 121 34 159 50 290 4 41 8 874 7 1850 l-2 1775
-23 65 c-72 198 -206 343 -382 413 -128 50 -124 50 -1110 51 -850 1 -932 0
-1013 -17z"/>
</g>
</svg>
