<?xml version="1.0" standalone="no"?>
<!DOCTYPE svg PUBLIC "-//W3C//DTD SVG 20010904//EN"
 "http://www.w3.org/TR/2001/REC-SVG-20010904/DTD/svg10.dtd">
<svg version="1.0" xmlns="http://www.w3.org/2000/svg"
 width="700.000000pt" height="700.000000pt" viewBox="0 0 700.000000 700.000000"
 preserveAspectRatio="xMidYMid meet">
<metadata>
Created by potrace 1.14, written by Peter Selinger 2001-2017
</metadata>
<g transform="translate(0.000000,700.000000) scale(0.100000,-0.100000)"
fill="#000000" stroke="none">
<path d="M2449 5786 c-2 -2 -40 -6 -84 -10 -275 -21 -558 -129 -810 -310 -271
-195 -507 -515 -613 -831 -109 -325 -79 -613 85 -835 134 -180 398 -373 798
-585 405 -214 599 -352 737 -524 107 -133 146 -244 146 -410 0 -253 -113 -439
-359 -589 -213 -130 -556 -200 -794 -162 -111 17 -129 22 -195 46 -157 59
-278 144 -366 257 -143 182 -176 440 -89 699 52 155 142 305 280 466 l37 43
-78 -1 c-68 -1 -142 -9 -230 -25 -12 -2 -57 -13 -100 -25 -301 -83 -495 -296
-532 -585 -9 -68 -8 -248 1 -316 17 -124 76 -278 143 -372 51 -71 176 -193
254 -249 159 -113 411 -206 635 -234 22 -3 51 -8 65 -10 14 -2 90 -6 170 -8
200 -6 343 8 520 50 600 141 1008 490 1106 945 34 155 23 399 -23 544 -61 192
-227 396 -446 548 -156 109 -237 157 -472 282 -436 232 -582 327 -699 457
-171 188 -186 437 -45 738 141 301 399 558 699 697 169 78 415 110 538 69 83
-28 122 -92 122 -200 0 -125 -27 -219 -155 -551 -115 -299 -125 -328 -146
-427 -23 -113 -24 -187 -3 -257 31 -105 137 -182 256 -186 l57 -2 36 59 c55
89 175 328 233 463 83 195 130 344 167 535 4 19 9 98 11 175 3 120 1 152 -17
215 -42 152 -138 280 -252 333 -59 28 -174 62 -247 72 -50 7 -335 16 -341 11z"/>
<path d="M4945 5783 c-55 -4 -231 -23 -252 -27 -10 -2 -38 -7 -63 -11 -25 -3
-58 -10 -75 -15 -16 -5 -43 -12 -60 -14 -133 -23 -397 -105 -625 -195 -58 -23
-111 -45 -119 -50 -23 -15 4 -72 66 -135 73 -74 115 -93 196 -89 56 2 82 13
262 102 180 90 289 135 352 147 12 2 34 9 48 14 14 5 25 8 25 6 0 -3 -25 -60
-56 -128 -31 -68 -100 -229 -155 -358 -55 -129 -104 -244 -109 -255 -5 -11
-34 -85 -65 -165 -31 -80 -60 -154 -65 -165 -24 -55 -248 -661 -307 -830 -84
-244 -211 -621 -333 -995 -73 -223 -168 -513 -212 -645 -43 -132 -86 -268 -94
-303 -22 -95 -20 -183 6 -237 58 -120 249 -214 441 -218 43 -1 79 0 82 3 8 9
142 484 457 1625 73 264 135 483 139 486 3 4 53 10 111 13 149 9 333 25 415
37 39 6 88 12 110 15 313 43 670 143 900 253 465 223 710 510 754 886 9 74 7
249 -4 300 -24 120 -64 215 -136 321 -208 309 -628 530 -1154 609 -101 15
-383 26 -480 18z m496 -234 c219 -48 400 -140 534 -273 147 -146 208 -312 200
-541 -8 -209 -55 -353 -170 -515 -149 -210 -363 -368 -655 -484 -52 -21 -104
-42 -115 -46 -34 -14 -191 -62 -250 -76 -90 -21 -204 -45 -260 -54 -38 -6 -81
-13 -95 -15 -14 -3 -51 -7 -82 -11 -69 -8 -68 -11 -32 107 14 46 41 136 60
199 19 63 60 194 91 290 48 151 78 243 194 582 39 117 155 414 199 513 10 22
32 74 50 115 18 41 46 102 62 135 17 33 35 71 41 83 11 23 15 24 77 17 36 -4
104 -15 151 -26z"/>
</g>
</svg>
